<?xml version="1.0" standalone="no"?>
<!DOCTYPE svg PUBLIC "-//W3C//DTD SVG 20010904//EN"
 "http://www.w3.org/TR/2001/REC-SVG-20010904/DTD/svg10.dtd">
<svg version="1.0" xmlns="http://www.w3.org/2000/svg"
 width="1183.000000pt" height="386.000000pt" viewBox="0 0 1183.000000 386.000000"
 preserveAspectRatio="xMidYMid meet">
<metadata>
Created by potrace 1.12, written by Peter Selinger 2001-2015
</metadata>
<g transform="translate(0.000000,386.000000) scale(0.100000,-0.100000)"
fill="#1E2F6B" stroke="none">
<path d="M4270 3272 l0 -40 76 -11 c41 -6 89 -18 106 -27 l30 -16 -4 -81 c-4
-71 -12 -101 -60 -223 -31 -78 -62 -161 -68 -185 -7 -24 -20 -57 -30 -74 -10
-16 -29 -61 -43 -100 -14 -38 -59 -158 -102 -265 -121 -308 -211 -539 -240
-618 -53 -143 -110 -199 -227 -224 l-58 -12 0 -38 0 -38 475 0 475 0 0 40 c0
39 -1 40 -34 40 -114 0 -186 39 -186 100 0 33 56 215 96 310 23 57 59 148 148
382 12 31 25 60 29 65 5 4 108 6 230 5 206 -3 230 -2 337 22 123 27 279 89
371 148 167 107 260 270 259 458 -1 98 -14 142 -61 201 -86 109 -139 137 -354
190 -86 21 -114 22 -627 26 l-538 4 0 -39z m995 -91 c52 -23 102 -81 111 -127
14 -75 -2 -215 -35 -316 -57 -171 -154 -288 -277 -335 -61 -24 -86 -27 -216
-30 -82 -2 -148 0 -148 5 0 20 33 117 59 175 16 34 34 80 41 102 7 22 44 119
83 215 38 96 75 194 82 218 29 93 56 110 185 111 52 0 87 -5 115 -18z"/>
<path d="M1640 3270 c0 -7 377 -10 1110 -10 733 0 1110 3 1110 10 0 7 -377 10
-1110 10 -733 0 -1110 -3 -1110 -10z"/>
<path d="M1087 3164 c-4 -4 -4 -11 -1 -15 3 -5 627 -9 1390 -9 1104 0 1385 3
1382 13 -4 9 -291 13 -1385 15 -759 1 -1382 -1 -1386 -4z"/>
<path d="M1070 3045 c0 -13 155 -15 1370 -13 903 2 1371 6 1373 13 1 7 -462
11 -1370 13 -1218 2 -1373 0 -1373 -13z"/>
<path d="M1030 2925 c0 -13 158 -15 1376 -15 1096 0 1375 3 1372 13 -4 9 -290
13 -1376 15 -1215 2 -1372 0 -1372 -13z"/>
<path d="M5982 2843 c3 -26 8 -29 76 -43 135 -28 139 -5 -121 -665 -52 -132
-113 -289 -137 -350 -136 -353 -143 -365 -252 -389 -50 -11 -53 -13 -56 -44
l-3 -32 380 0 381 0 0 34 0 33 -71 5 c-116 9 -135 49 -85 178 14 36 66 166
115 290 l89 225 302 3 302 2 -6 -26 c-10 -37 -189 -488 -222 -559 -38 -79 -81
-107 -179 -113 l-75 -5 0 -33 0 -34 405 0 405 0 0 35 0 35 -50 0 c-28 0 -66 7
-85 14 -31 13 -35 19 -35 53 0 45 109 362 169 496 10 23 49 119 86 212 150
380 198 502 216 536 27 53 70 85 126 94 64 9 83 21 83 50 l0 25 -390 0 -390 0
0 -23 c0 -26 34 -47 73 -47 49 0 98 -21 107 -46 11 -29 -8 -90 -122 -386 l-73
-188 -302 0 c-270 0 -303 2 -303 16 0 9 13 46 29 82 16 37 54 134 85 215 70
184 97 237 136 270 34 29 116 57 167 57 29 0 33 3 33 25 l0 25 -406 0 -405 0
3 -27z"/>
<path d="M1880 2805 c0 -13 108 -15 909 -15 500 0 916 3 925 6 9 3 13 10 10
15 -3 5 -394 9 -925 9 -810 0 -919 -2 -919 -15z"/>
<path d="M960 2695 c0 -13 161 -15 1385 -15 1224 0 1385 2 1385 15 0 13 -161
15 -1385 15 -1224 0 -1385 -2 -1385 -15z"/>
<path d="M2080 2475 c0 -13 91 -15 790 -13 518 2 790 6 790 13 0 7 -272 11
-790 13 -699 2 -790 0 -790 -13z"/>
<path d="M9610 2445 c0 -13 73 -15 595 -15 522 0 595 2 595 15 0 13 -73 15
-595 15 -522 0 -595 -2 -595 -15z"/>
<path d="M8322 2383 c3 -25 8 -29 50 -35 26 -3 52 -9 57 -13 22 -13 9 -69 -53
-227 -34 -90 -82 -212 -106 -273 -24 -60 -67 -173 -97 -249 -66 -172 -86 -200
-153 -217 -38 -10 -50 -17 -50 -32 0 -18 12 -19 373 -15 l372 4 80 28 c158 57
237 130 265 244 15 65 6 152 -21 186 -21 27 -99 75 -131 81 -25 5 -43 21 -31
28 4 2 40 15 78 27 95 31 133 51 181 98 51 50 74 98 74 155 0 116 -62 172
-239 218 -65 17 -111 19 -363 19 l-289 0 3 -27z m569 -50 c48 -28 62 -67 56
-147 -9 -126 -71 -214 -177 -251 -35 -12 -200 -22 -200 -12 0 2 16 43 36 93
20 49 50 127 66 173 16 46 36 97 44 113 29 56 109 70 175 31z m-196 -483 c24
-5 51 -21 69 -41 28 -31 28 -34 24 -128 -5 -113 -24 -158 -97 -231 -56 -56
-121 -81 -210 -81 -122 -1 -127 13 -62 170 27 64 64 157 82 206 18 50 37 96
42 103 11 14 94 16 152 2z"/>
<path d="M882 2358 c4 -10 290 -14 1387 -16 1105 -2 1382 0 1379 10 -4 10
-290 14 -1387 16 -1105 2 -1382 0 -1379 -10z"/>
<path d="M9580 2315 c0 -13 83 -15 685 -15 602 0 685 2 685 15 0 13 -83 15
-685 15 -602 0 -685 -2 -685 -15z"/>
<path d="M9542 2198 c4 -10 173 -14 791 -16 695 -2 787 0 787 13 0 13 -93 15
-791 15 -628 0 -790 -3 -787 -12z"/>
<path d="M9522 2078 c4 -10 188 -14 866 -16 762 -2 862 0 862 13 0 13 -101 15
-866 15 -688 0 -865 -3 -862 -12z"/>
<path d="M9470 1955 c0 -13 114 -15 965 -15 851 0 965 2 965 15 0 13 -114 15
-965 15 -851 0 -965 -2 -965 -15z"/>
<path d="M9420 1825 c0 -13 119 -15 1050 -13 692 2 1050 6 1050 13 0 7 -358
11 -1050 13 -931 2 -1050 0 -1050 -13z"/>
<path d="M9417 1704 c-4 -4 -4 -11 -1 -15 3 -5 432 -9 955 -9 837 0 949 2 949
15 0 13 -112 15 -948 15 -522 0 -952 -3 -955 -6z"/>
<path d="M7440 1671 c-111 -34 -178 -126 -168 -232 6 -61 26 -91 82 -124 117
-68 257 -29 328 93 48 81 35 146 -41 215 -56 50 -132 69 -201 48z"/>
<path d="M9360 1565 c0 -13 98 -15 831 -15 660 0 830 3 827 13 -4 9 -181 13
-831 15 -731 2 -827 0 -827 -13z"/>
<path d="M9320 1445 c0 -13 86 -15 710 -15 624 0 710 2 710 15 0 13 -86 15
-710 15 -624 0 -710 -2 -710 -15z"/>
<path d="M1860 1415 c0 -13 83 -15 723 -13 473 2 722 6 722 13 0 7 -249 11
-722 13 -640 2 -723 0 -723 -13z"/>
<path d="M9280 1315 c0 -13 68 -15 577 -13 450 2 577 6 581 16 3 9 -117 12
-577 12 -511 0 -581 -2 -581 -15z"/>
<path d="M1815 1310 c-3 -5 4 -12 17 -15 13 -3 340 -4 727 -3 553 2 705 6 709
16 3 9 -146 12 -722 12 -458 0 -727 -4 -731 -10z"/>
</g>
</svg>
